<svg height="512" viewBox="0 0 128 128" width="512" xmlns="http://www.w3.org/2000/svg"><path d="m63.211 61.176a38.288 38.288 0 0 1 10.338-3.346l14.451-2.485a6.438 6.438 0 0 0 4.621-3.371l20.007 10.853a6.818 6.818 0 0 0 8.965-2.214 6.852 6.852 0 0 0 -2.148-9.674s-30.953-18.369-33.737-20.013c-3.282-1.926-8.388-4.026-14.068-3.051-4.36.75-9.412 2.8-14.3 4.777-5.032 2.04-9.784 3.975-12.174 3.713-.593-.08-4.225-1.429-8.977-3.33l.611-1.435a5.52 5.52 0 0 0 -2.921-7.226l-9.484-4.024a5.512 5.512 0 0 0 -7.229 2.921l-9.979 23.539a5.518 5.518 0 0 0 2.921 7.225l9.484 4.027a5.471 5.471 0 0 0 6.852-2.231c3.558 1.526 7.041 3.031 7.377 3.2a8.727 8.727 0 0 1 1.3 1.063 18.306 18.306 0 0 0 13.345 5.443c.665 0 1.36-.028 2.084-.088a26.353 26.353 0 0 0 9.458-2.7z" fill="#e6e7e8"/><path d="m116.334 102.335h-25.7v-2.062h21.846a2.478 2.478 0 0 0 2.471-2.616 28.544 28.544 0 0 0 -24.315-26.62v-2h4.392a1 1 0 0 0 1-1v-1.49a5.006 5.006 0 0 0 -5-5h-9.146a5.006 5.006 0 0 0 -5 5v1.486a1 1 0 0 0 1 1h4.391v2a28.542 28.542 0 0 0 -24.314 26.62 2.478 2.478 0 0 0 2.47 2.616h21.844v2.062h-25.7a4.878 4.878 0 1 0 0 9.756h59.758a4.878 4.878 0 0 0 0-9.756z" fill="#e6e7e8"/><path d="m124.25 85.82h-5.833a1 1 0 0 0 0 2h5.833a1 1 0 0 0 0-2z" fill="#e6e7e8"/><path d="m117.528 81.277a1 1 0 0 0 .89.543.983.983 0 0 0 .456-.111l5.834-3a1 1 0 0 0 -.915-1.779l-5.834 3a1 1 0 0 0 -.431 1.347z" fill="#e6e7e8"/><path d="m124.708 94.93-5.834-3a1 1 0 0 0 -.915 1.779l5.834 3a.983.983 0 0 0 .456.111 1 1 0 0 0 .459-1.89z" fill="#e6e7e8"/><path d="m116.763 56.057a5.853 5.853 0 0 1 -7.657 1.891l-20.98-11.381a5.476 5.476 0 0 1 -4.294 3.793l-14.452 2.485a39.272 39.272 0 0 0 -10.609 3.432l-3.207 1.571a25.42 25.42 0 0 1 -9.1 2.605c-10.53.887-14.279-5.338-16.19-6.312-.524-.267-7.026-3.053-8.29-3.594l8.887-20.964c1.382.557 9.124 3.663 10.187 3.776 5.023.532 17.784-6.956 26.751-8.5 5.438-.936 10.365 1.147 13.392 2.927 2.783 1.645 33.735 20.014 33.735 20.014a5.854 5.854 0 0 1 1.827 8.257z" fill="#ffd7e5"/><path d="m29.766 51.185c1.911.973 5.66 7.2 16.19 6.311a25.41 25.41 0 0 0 9.1-2.605l3.207-1.57a39.23 39.23 0 0 1 10.608-3.432l14.452-2.489a5.472 5.472 0 0 0 4.294-3.793l20.983 11.385a5.851 5.851 0 0 0 8.621-4.624 5.852 5.852 0 0 1 -8.112 7.58l-20.983-11.381a5.476 5.476 0 0 1 -4.294 3.793l-14.452 2.485a39.272 39.272 0 0 0 -10.609 3.432l-3.207 1.571a25.42 25.42 0 0 1 -9.1 2.605c-10.53.887-14.279-5.338-16.19-6.312-.524-.267-7.026-3.053-8.29-3.594l.982-2.318c2.362 1.014 6.392 2.747 6.8 2.956z" fill="#fff"/><rect fill="#6dc9f7" height="34.589" rx="4.512" transform="matrix(.921 .391 -.391 .921 15.186 -4.232)" width="19.327" x="8.329" y="17.911"/><circle cx="19.644" cy="26.415" fill="#fa759e" r="2.5"/><path d="m82.455 67.731a27.855 27.855 0 0 1 3.182.19v-3.889h-6.364v3.889a27.855 27.855 0 0 1 3.182-.19z" fill="#d4fbff"/><path d="m79.273 95.272h6.364v4.063h-6.364z" fill="#d4fbff"/><path d="m77.882 58.548h9.145a4 4 0 0 1 4 4v1.485a0 0 0 0 1 0 0h-17.145a0 0 0 0 1 0 0v-1.485a4 4 0 0 1 4-4z" fill="#6dc9f7"/><path d="m82.455 67.731a27.543 27.543 0 0 0 -27.5 25.981 1.477 1.477 0 0 0 1.472 1.56h52.053a1.476 1.476 0 0 0 1.472-1.56 27.542 27.542 0 0 0 -27.497-25.981z" fill="#fa759e"/><path d="m82.9 74.8 2.048 4.15 4.579.665a.5.5 0 0 1 .276.848l-3.313 3.237.782 4.561a.5.5 0 0 1 -.721.524l-4.1-2.153-4.1 2.153a.5.5 0 0 1 -.721-.524l.782-4.561-3.314-3.231a.5.5 0 0 1 .276-.848l4.58-.665 2.048-4.15a.5.5 0 0 1 .898-.006z" fill="#ffd7e5"/><rect fill="#fa759e" height="7.756" rx="3.878" width="67.513" x="48.698" y="99.336"/><g fill="#3a2c60"><path d="m59.211 57.176a38.226 38.226 0 0 1 10.338-3.345l14.451-2.486a6.435 6.435 0 0 0 4.621-3.371l20.007 10.853a6.822 6.822 0 0 0 8.965-2.214 6.854 6.854 0 0 0 -2.149-9.674s-30.951-18.369-33.736-20.013c-3.283-1.926-8.389-4.026-14.067-3.051-4.36.75-9.411 2.8-14.3 4.776-5.034 2.04-9.792 3.979-12.178 3.713-.592-.079-4.3-1.456-8.977-3.329l.614-1.435a5.518 5.518 0 0 0 -2.921-7.226l-9.485-4.024a5.514 5.514 0 0 0 -7.229 2.922l-9.979 23.539a5.519 5.519 0 0 0 2.922 7.225l9.484 4.026a5.48 5.48 0 0 0 4.219.035 5.446 5.446 0 0 0 2.632-2.266c3.559 1.526 7.042 3.03 7.378 3.2a8.763 8.763 0 0 1 1.3 1.064 18.306 18.306 0 0 0 13.345 5.443c.665 0 1.36-.028 2.084-.089a26.365 26.365 0 0 0 9.45-2.703zm-40.15-4.933a3.48 3.48 0 0 1 -2.688-.023l-9.484-4.026a3.514 3.514 0 0 1 -1.861-4.6l9.978-23.538a3.506 3.506 0 0 1 4.606-1.863l9.488 4.024a3.514 3.514 0 0 1 1.861 4.6l-9.983 23.54a3.477 3.477 0 0 1 -1.917 1.886zm27.32 7.214c-7.853.667-11.652-2.783-13.918-4.842a9.012 9.012 0 0 0 -1.734-1.364c-.47-.24-5.044-2.206-7.434-3.231l8.115-19.143c3.481 1.395 8.539 3.37 9.543 3.476 2.89.312 7.641-1.619 13.143-3.848 4.787-1.94 9.736-3.945 13.883-4.659 5.08-.872 9.72 1.043 12.714 2.8 2.782 1.643 33.725 20.006 33.724 20.005a4.854 4.854 0 0 1 -4.834 8.415l-20.312-11.016a6.488 6.488 0 0 0 -7.5-7.5l-25.771 4.433a1 1 0 1 0 .339 1.971l25.774-4.434a4.5 4.5 0 0 1 5.059 5.748 4.468 4.468 0 0 1 -3.508 3.105l-14.454 2.487a40.25 40.25 0 0 0 -10.879 3.519l-3.208 1.571a24.349 24.349 0 0 1 -8.742 2.507z"/><path d="m21.664 23.556a3.462 3.462 0 0 0 -2.614-.59 3.5 3.5 0 0 0 .594 6.949 3.548 3.548 0 0 0 .594-.051 3.5 3.5 0 0 0 1.426-6.308zm-1.764 4.338a1.5 1.5 0 1 1 -.251-2.98 1.5 1.5 0 0 1 .251 2.98z"/><path d="m95.917 106.092h-8.547a1 1 0 0 0 0 2h8.547a1 1 0 0 0 0-2z"/><path d="m112.333 98.336h-25.7v-2.064h21.847a2.478 2.478 0 0 0 2.471-2.615 28.544 28.544 0 0 0 -24.314-26.62v-2.005h4.39a1 1 0 0 0 1-1v-1.484a5.006 5.006 0 0 0 -5-5h-9.145a5.006 5.006 0 0 0 -5 5v1.484a1 1 0 0 0 1 1h4.391v2a28.547 28.547 0 0 0 -24.315 26.625 2.476 2.476 0 0 0 2.471 2.615h21.844v2.064h-25.7a4.878 4.878 0 1 0 0 9.756h30.882a1 1 0 0 0 0-2h-30.879a2.878 2.878 0 1 1 0-5.756h59.757a2.878 2.878 0 0 1 0 5.756h-12.416a1 1 0 0 0 0 2h12.416a4.878 4.878 0 0 0 0-9.756zm-37.451-35.788a3 3 0 0 1 3-3h9.145a3 3 0 0 1 3 3v.484h-15.145zm5.391 2.484h4.364v1.79c-.722-.054-1.448-.091-2.182-.091s-1.461.037-2.182.091zm-24.187 29.092a.473.473 0 0 1 -.13-.355 26.542 26.542 0 0 1 53 0 .479.479 0 0 1 -.13.355.47.47 0 0 1 -.344.148h-52.053a.467.467 0 0 1 -.343-.148zm24.187 4.212v-2.064h4.364v2.064z"/><path d="m120.25 81.819h-5.833a1 1 0 0 0 0 2h5.833a1 1 0 0 0 0-2z"/><path d="m113.528 77.276a1 1 0 0 0 1.346.433l5.834-3a1 1 0 0 0 -.915-1.779l-5.834 3a1 1 0 0 0 -.431 1.346z"/><path d="m120.708 90.93-5.834-3a1 1 0 0 0 -.915 1.779l5.834 3a1 1 0 0 0 .915-1.779z"/></g></svg>