<svg id="fees" enable-background="new 0 0 300 300" height="512" viewBox="0 0 300 300" width="512" xmlns="http://www.w3.org/2000/svg"><g><circle cx="36" cy="133.074" fill="#4c241d" r="6"/><circle cx="46" cy="123.074" fill="#4c241d" r="4"/><circle cx="190" cy="127.074" fill="#f7efeb" r="76"/><g fill="#4c241d"><path d="m258 167.074h-28c-2.209 0-4-1.789-4-4s1.791-4 4-4h28c2.209 0 4 1.789 4 4s-1.791 4-4 4z"/><path d="m238 179.074c-1.023 0-2.047-.391-2.828-1.172l-12-12c-1.562-1.562-1.562-4.094 0-5.656l12-12c1.562-1.562 4.094-1.562 5.656 0s1.562 4.094 0 5.656l-9.172 9.172 9.172 9.172c1.562 1.562 1.562 4.094 0 5.656-.781.782-1.805 1.172-2.828 1.172z"/><path d="m214 235.074h-28c-2.209 0-4-1.789-4-4s1.791-4 4-4h28c2.209 0 4 1.789 4 4s-1.791 4-4 4z"/><path d="m194 247.074c-1.023 0-2.047-.391-2.828-1.172l-12-12c-1.562-1.562-1.562-4.094 0-5.656l12-12c1.562-1.562 4.094-1.562 5.656 0s1.562 4.094 0 5.656l-9.172 9.172 9.172 9.172c1.562 1.562 1.562 4.094 0 5.656-.781.782-1.805 1.172-2.828 1.172z"/><path d="m78 75.074h-28c-2.209 0-4-1.789-4-4s1.791-4 4-4h28c2.209 0 4 1.789 4 4s-1.791 4-4 4z"/><path d="m58 87.074c-1.023 0-2.047-.391-2.828-1.172l-12-12c-1.562-1.562-1.562-4.094 0-5.656l12-12c1.562-1.562 4.094-1.562 5.656 0s1.562 4.094 0 5.656l-9.172 9.172 9.172 9.172c1.562 1.562 1.562 4.094 0 5.656-.781.782-1.805 1.172-2.828 1.172z"/><path d="m74 163.074h-28c-2.209 0-4-1.789-4-4s1.791-4 4-4h28c2.209 0 4 1.789 4 4s-1.791 4-4 4z"/><path d="m54 175.074c-1.023 0-2.047-.391-2.828-1.172l-12-12c-1.562-1.562-1.562-4.094 0-5.656l12-12c1.562-1.562 4.094-1.562 5.656 0s1.562 4.094 0 5.656l-9.172 9.172 9.172 9.172c1.562 1.562 1.562 4.094 0 5.656-.781.782-1.805 1.172-2.828 1.172z"/></g><g><path d="m86 135.074h128v52h-128z" fill="#ffce56"/><path d="m214 191.074h-128c-2.209 0-4-1.789-4-4v-52c0-2.211 1.791-4 4-4h128c2.209 0 4 1.789 4 4v52c0 2.211-1.791 4-4 4zm-124-8h120v-44h-120z" fill="#4c241d"/></g><path d="m142 175.074h-12c-2.209 0-4-1.789-4-4v-24c0-2.211 1.791-4 4-4h12c2.209 0 4 1.789 4 4s-1.791 4-4 4h-8v16h8c2.209 0 4 1.789 4 4s-1.791 4-4 4z" fill="#4c241d"/><path d="m138 163.324h-8c-2.209 0-4-1.789-4-4s1.791-4 4-4h8c2.209 0 4 1.789 4 4s-1.791 4-4 4z" fill="#4c241d"/><path d="m102 175.074c-2.209 0-4-1.789-4-4v-24c0-2.211 1.791-4 4-4h12c2.209 0 4 1.789 4 4s-1.791 4-4 4h-8v20c0 2.211-1.791 4-4 4z" fill="#4c241d"/><path d="m110 163.324h-8c-2.209 0-4-1.789-4-4s1.791-4 4-4h8c2.209 0 4 1.789 4 4s-1.791 4-4 4z" fill="#4c241d"/><path d="m170 175.074h-12c-2.209 0-4-1.789-4-4v-24c0-2.211 1.791-4 4-4h12c2.209 0 4 1.789 4 4s-1.791 4-4 4h-8v16h8c2.209 0 4 1.789 4 4s-1.791 4-4 4z" fill="#4c241d"/><path d="m166 163.324h-8c-2.209 0-4-1.789-4-4s1.791-4 4-4h8c2.209 0 4 1.789 4 4s-1.791 4-4 4z" fill="#4c241d"/><path d="m198 175.074h-12c-2.209 0-4-1.789-4-4s1.791-4 4-4h8v-4h-8c-2.209 0-4-1.789-4-4v-12c0-2.211 1.791-4 4-4h12c2.209 0 4 1.789 4 4s-1.791 4-4 4h-8v4h8c2.209 0 4 1.789 4 4v12c0 2.211-1.791 4-4 4z" fill="#4c241d"/><g><circle cx="222" cy="99.074" fill="#02eae6" r="44"/><path d="m222 147.074c-26.467 0-48-21.531-48-48s21.533-48 48-48 48 21.531 48 48-21.533 48-48 48zm0-88c-22.057 0-40 17.945-40 40s17.943 40 40 40 40-17.945 40-40-17.943-40-40-40z" fill="#4c241d"/></g><path d="m234 131.074h-13.141c-10.398 0-18.859-9.57-18.859-21.336v-21.328c0-11.766 8.461-21.336 18.859-21.336h13.141c2.209 0 4 1.789 4 4s-1.791 4-4 4h-13.141c-5.988 0-10.859 5.984-10.859 13.336v21.328c0 7.352 4.871 13.336 10.859 13.336h13.141c2.209 0 4 1.789 4 4s-1.791 4-4 4z" fill="#4c241d"/><path d="m222 99.074h-24c-2.209 0-4-1.789-4-4s1.791-4 4-4h24c2.209 0 4 1.789 4 4s-1.791 4-4 4z" fill="#4c241d"/><path d="m222 111.074h-16c-2.209 0-4-1.789-4-4s1.791-4 4-4h16c2.209 0 4 1.789 4 4s-1.791 4-4 4z" fill="#4c241d"/><g><circle cx="82" cy="223.074" fill="#a9ba5a" r="44"/><path d="m82 271.074c-26.467 0-48-21.531-48-48s21.533-48 48-48 48 21.531 48 48-21.533 48-48 48zm0-88c-22.057 0-40 17.945-40 40s17.943 40 40 40 40-17.945 40-40-17.943-40-40-40z" fill="#4c241d"/></g><path d="m87.559 251.074h-20.801c-2.209 0-4-1.789-4-4s1.791-4 4-4h20.801c3.553 0 6.441-2.891 6.441-6.441v-3.117c0-3.551-2.889-6.441-6.441-6.441h-11.118c-7.963 0-14.441-6.477-14.441-14.441v-3.117c0-7.965 6.479-14.441 14.441-14.441h17.559c2.209 0 4 1.789 4 4s-1.791 4-4 4h-17.559c-3.553 0-6.441 2.891-6.441 6.441v3.117c0 3.551 2.889 6.441 6.441 6.441h11.117c7.963 0 14.441 6.477 14.441 14.441v3.117c.001 7.965-6.478 14.441-14.44 14.441z" fill="#4c241d"/><path d="m82 259.074c-2.209 0-4-1.789-4-4v-64c0-2.211 1.791-4 4-4s4 1.789 4 4v64c0 2.211-1.791 4-4 4z" fill="#4c241d"/><path d="m142 42.586c-2.209 0-4-1.789-4-4v-5.66c0-2.211 1.791-4 4-4s4 1.789 4 4v5.66c0 2.211-1.791 4-4 4z" fill="#4c241d"/><path d="m142 65.223c-2.209 0-4-1.789-4-4v-5.66c0-2.211 1.791-4 4-4s4 1.789 4 4v5.66c0 2.211-1.791 4-4 4z" fill="#4c241d"/><path d="m133.512 51.074h-5.66c-2.209 0-4-1.789-4-4s1.791-4 4-4h5.66c2.209 0 4 1.789 4 4s-1.791 4-4 4z" fill="#4c241d"/><path d="m156.148 51.074h-5.66c-2.209 0-4-1.789-4-4s1.791-4 4-4h5.66c2.209 0 4 1.789 4 4s-1.791 4-4 4z" fill="#4c241d"/></g></svg>