<svg id="Capa_1" enable-background="new 0 0 512.002 512.002" height="512" viewBox="0 0 512.002 512.002" width="512" xmlns="http://www.w3.org/2000/svg"><g><g><path d="m67.639 61.241v424.05c0 10.618 8.608 19.226 19.226 19.226h338.27c10.618 0 19.227-8.608 19.227-19.226v-424.05z" fill="#dfebfa"/><path d="m100.639 485.292v-424.051h-33v424.05c0 10.618 8.608 19.226 19.226 19.226h33c-10.618.001-19.226-8.607-19.226-19.225z" fill="#b1dbfc"/><path d="m425.135 7.516h-304.46v55.726h323.687v-36.5c0-10.619-8.609-19.226-19.227-19.226z" fill="#5cb3f8"/><path d="m122.675 7.516h-35.81c-10.618 0-19.226 8.608-19.226 19.226v36.5h55.036z" fill="#ff656f"/><path d="m119.865 7.516h-33c-10.618 0-19.226 8.608-19.226 19.226v36.5h33v-36.5c0-10.619 8.608-19.226 19.226-19.226z" fill="#ff4756"/><path d="m256 93.921c-38.568 0-69.833 31.266-69.833 69.833 0 22.209 10.38 41.982 26.54 54.773v-17.729c0-13.041 9.75-23.711 21.666-23.711h43.255c11.916 0 21.666 10.67 21.666 23.711v17.729c16.16-12.79 26.54-32.563 26.54-54.773 0-38.567-31.266-69.833-69.834-69.833z" fill="#5cb3f8"/><g><g><g><path d="m217.417 163.755c0-33.194 23.167-60.958 54.208-68.057-5.026-1.149-10.251-1.777-15.625-1.777-38.568 0-69.833 31.266-69.833 69.833 0 22.209 10.38 41.982 26.54 54.773v-17.729c0-7.076 2.875-13.45 7.405-17.804-1.751-6.111-2.695-12.564-2.695-19.239z" fill="#0290f4"/></g></g></g><circle cx="256" cy="149.787" fill="#ffcebe" r="25.533"/><path d="m252.468 149.787c0-10.162 5.938-18.937 14.533-23.046-3.331-1.593-7.061-2.486-11-2.486-14.101 0-25.533 11.431-25.533 25.533s11.431 25.532 25.532 25.532c3.939 0 7.669-.893 11-2.486-8.594-4.11-14.532-12.884-14.532-23.047z" fill="#ffb1a0"/><path d="m278.305 175.32h-44.609c-12.289 0-22.343 10.055-22.343 22.343v19.781c12.105 10.077 27.666 16.144 44.648 16.144s32.543-6.066 44.648-16.144v-19.781c-.001-12.288-10.055-22.343-22.344-22.343z" fill="#ff656f"/><path d="m233.353 195.663c0-9.014 5.413-16.82 13.146-20.343h-12.802c-12.289 0-22.344 10.055-22.344 22.343v19.781c6.452 5.371 13.893 9.588 22 12.369z" fill="#ff4756"/><g fill="#43cb8e"><path d="m193.631 271.296h-74.208c-5.66 0-10.248 4.588-10.248 10.248v58.037c0 5.66 4.588 10.248 10.248 10.248h74.208c5.66 0 10.248-4.588 10.248-10.248v-58.037c0-5.66-4.588-10.248-10.248-10.248z"/><path d="m193.631 383.555h-74.208c-5.66 0-10.248 4.588-10.248 10.248v58.037c0 5.66 4.588 10.248 10.248 10.248h74.208c5.66 0 10.248-4.588 10.248-10.248v-58.037c0-5.659-4.588-10.248-10.248-10.248z"/></g></g><g><path d="m407.109 27.863h-247.847c-4.143 0-7.5 3.358-7.5 7.5s3.357 7.5 7.5 7.5h247.848c4.143 0 7.5-3.358 7.5-7.5s-3.358-7.5-7.501-7.5z"/><path d="m211.379 281.528c0-9.786-7.961-17.748-17.747-17.748h-74.209c-9.786 0-17.748 7.961-17.748 17.748v58.037c0 9.786 7.962 17.748 17.748 17.748h74.209c9.786 0 17.747-7.961 17.747-17.748zm-15 58.037c0 1.515-1.232 2.748-2.747 2.748h-74.209c-1.516 0-2.748-1.232-2.748-2.748v-58.037c0-1.515 1.232-2.748 2.748-2.748h74.209c1.515 0 2.747 1.232 2.747 2.748z"/><path d="m193.632 376.04h-74.209c-9.786 0-17.748 7.962-17.748 17.748v58.037c0 9.786 7.962 17.748 17.748 17.748h74.209c9.786 0 17.747-7.962 17.747-17.748v-58.037c0-9.787-7.961-17.748-17.747-17.748zm2.747 75.784c0 1.515-1.232 2.748-2.747 2.748h-74.209c-1.516 0-2.748-1.233-2.748-2.748v-58.037c0-1.515 1.232-2.748 2.748-2.748h74.209c1.515 0 2.747 1.233 2.747 2.748z"/><path d="m395.713 273.447h-156.572c-4.143 0-7.5 3.358-7.5 7.5s3.357 7.5 7.5 7.5h156.572c4.143 0 7.5-3.358 7.5-7.5s-3.358-7.5-7.5-7.5z"/><path d="m395.713 303.047h-156.572c-4.143 0-7.5 3.358-7.5 7.5s3.357 7.5 7.5 7.5h156.572c4.143 0 7.5-3.358 7.5-7.5s-3.358-7.5-7.5-7.5z"/><path d="m395.713 332.647h-156.572c-4.143 0-7.5 3.358-7.5 7.5s3.357 7.5 7.5 7.5h156.572c4.143 0 7.5-3.358 7.5-7.5s-3.358-7.5-7.5-7.5z"/><path d="m395.713 385.706h-156.572c-4.143 0-7.5 3.358-7.5 7.5s3.357 7.5 7.5 7.5h156.572c4.143 0 7.5-3.358 7.5-7.5s-3.358-7.5-7.5-7.5z"/><path d="m395.713 415.306h-156.572c-4.143 0-7.5 3.358-7.5 7.5s3.357 7.5 7.5 7.5h156.572c4.143 0 7.5-3.358 7.5-7.5s-3.358-7.5-7.5-7.5z"/><path d="m395.713 444.906h-156.572c-4.143 0-7.5 3.358-7.5 7.5s3.357 7.5 7.5 7.5h156.572c4.143 0 7.5-3.358 7.5-7.5s-3.358-7.5-7.5-7.5z"/><path d="m166.327 296.172-12.839 12.84-6.762-6.762c-2.93-2.929-7.678-2.929-10.607 0s-2.929 7.678 0 10.606l12.065 12.065c2.928 2.927 7.677 2.929 10.607 0l18.143-18.143c2.929-2.929 2.929-7.678 0-10.606s-7.677-2.928-10.607 0z"/><path d="m166.327 408.431-12.839 12.84-6.763-6.762c-2.928-2.93-7.677-2.929-10.606 0s-2.929 7.678.001 10.606l12.065 12.065c2.926 2.928 7.675 2.93 10.606 0l18.143-18.143c2.929-2.929 2.929-7.678 0-10.606-2.929-2.929-7.677-2.929-10.607 0z"/><path d="m256.001 241.072c42.743 0 77.333-34.838 77.333-77.333 0-35.284-23.834-66.077-57.959-74.884-4.014-1.034-8.103 1.378-9.136 5.388-1.035 4.011 1.377 8.101 5.388 9.136 27.5 7.097 46.707 31.917 46.707 60.359 0 12.575-3.755 24.283-10.186 34.087v-.179c0-14.728-10.727-26.99-24.776-29.404 3.572-5.276 5.66-11.635 5.66-18.472 0-18.214-14.818-33.033-33.032-33.033-18.215 0-33.033 14.818-33.033 33.033 0 6.837 2.088 13.196 5.66 18.472-14.049 2.415-24.776 14.677-24.776 29.404v.179c-6.43-9.804-10.186-21.512-10.186-34.087 0-28.442 19.207-53.263 46.708-60.359 4.011-1.035 6.423-5.125 5.388-9.136-1.034-4.01-5.127-6.423-9.136-5.388-34.126 8.807-57.96 39.6-57.96 74.884.002 42.383 34.444 77.333 77.336 77.333zm0-109.333c9.943 0 18.032 8.089 18.032 18.033s-8.089 18.033-18.032 18.033-18.033-8.089-18.033-18.033 8.09-18.033 18.033-18.033zm-37.148 65.908c0-8.185 6.659-14.843 14.844-14.843h44.609c8.185 0 14.843 6.659 14.843 14.843v16.113c-11.131 8.288-24.33 12.312-37.147 12.312-12.845 0-26.051-4.049-37.148-12.312v-16.113z"/><path d="m60.14 26.726v458.55c0 14.737 11.989 26.726 26.726 26.726h338.271c14.737 0 26.727-11.989 26.727-26.726v-211.775c0-4.142-3.357-7.5-7.5-7.5s-7.5 3.358-7.5 7.5v211.775c0 6.466-5.261 11.726-11.727 11.726h-338.272c-6.466 0-11.726-5.26-11.726-11.726v-414.55h361.723v167.775c0 4.142 3.357 7.5 7.5 7.5s7.5-3.358 7.5-7.5v-211.775c0-14.737-11.989-26.726-26.726-26.726h-338.271c-14.736 0-26.725 11.989-26.725 26.726zm70.035-11.726h294.961c6.466 0 11.727 5.26 11.727 11.726v29h-306.688zm-15 40.726h-40.035v-29c0-6.466 5.259-11.726 11.725-11.726h28.31z"/></g></g></svg>