<svg id="Layer_35" enable-background="new 0 0 64 64" height="512" viewBox="0 0 64 64" width="512" xmlns="http://www.w3.org/2000/svg"><path d="m6 27h12v12h-12z" fill="#cf9e76"/><path d="m24.93 24.93-1.42 1.41.42 2.32-1.93 1.34v4l1.93 1.34-.42 2.32 1.42 1.42-.78.77-16.24 10.03c-3.71-4.99-5.91-11.18-5.91-17.88s2.2-12.89 5.91-17.88l16.24 10.03z" fill="#e6e9ed"/><path d="m6 27h12v12h-12z" fill="#cf9e76"/><g fill="#e6e9ed"><path d="m39.85 24.15-.77.78-1.42-1.42-2.32.42-1.34-1.93h-4l-1.34 1.93-2.32-.42-1.41 1.42-.78-.78-10.03-16.24c4.99-3.71 11.18-5.91 17.88-5.91s12.89 2.2 17.88 5.91z"/><path d="m39.85 39.85-.77-.77-1.42 1.41-2.32-.42-1.34 1.93h-4l-1.34-1.93-2.32.42-1.41-1.41-.78.77-10.03 16.24c3.98 2.96 8.72 4.96 13.88 5.64h8c5.16-.68 9.9-2.68 13.88-5.64z"/><path d="m40.49 37.66-.42-2.32 1.93-1.34v-4l-1.93-1.34.42-2.32-1.41-1.41.77-.78 16.24-10.03c3.71 4.99 5.91 11.18 5.91 17.88s-2.2 12.89-5.91 17.88l-16.24-10.03-.77-.77z"/></g><path d="m49 36h6v4h-6z" fill="#b27946"/><path d="m36 58v3.73c-1.31.18-2.64.27-4 .27s-2.69-.09-4-.27v-3.73z" fill="#aab2bd"/><path d="m40 54v2c0 1.1-.9 2-2 2h-2-8-2c-1.1 0-2-.9-2-2v-2z" fill="#ccd1d9"/><path d="m40 48v6h-16v-6c0-1.1.9-2 2-2h12c1.1 0 2 .9 2 2z" fill="#69d6f4"/><path d="m10 35h4v4h-4z" fill="#b27946"/><path d="m10 27h4v4h-4z" fill="#b27946"/><path d="m38 18h-12c0-1.23.69-2.35 1.79-2.89l2.21-1.11v-.78c-.61-.55-1-1.34-1-2.22v-2c0-1.71 1.43-3.09 3.16-3 1.62.09 2.84 1.55 2.84 3.17v1.83c0 .88-.39 1.67-1 2.22v.78l2.21 1.11c1.1.54 1.79 1.66 1.79 2.89z" fill="#b4dd7f"/><path d="m52 36h-3c-2.36-1.12-4-3.21-4-6 0-3.87 3.13-7 7-7s7 3.13 7 7c0 2.79-1.64 4.88-4 6z" fill="#ffeaa7"/><circle cx="52" cy="30" fill="#ffc729" r="2"/><path d="m42 30v4l-1.93 1.34.42 2.32-1.41 1.42-1.42 1.41-2.32-.42-1.34 1.93h-4l-1.34-1.93-2.32.42-1.41-1.41-1.42-1.42.42-2.32-1.93-1.34v-4l1.93-1.34-.42-2.32 1.42-1.41 1.41-1.42 2.32.42 1.34-1.93h4l1.34 1.93 2.32-.42 1.42 1.42 1.41 1.41-.42 2.32zm-6 2c0-2.21-1.79-4-4-4s-4 1.79-4 4 1.79 4 4 4 4-1.79 4-4z" fill="#fcd770"/><path d="m39 19v-1c0-1.615-.897-3.067-2.342-3.789l-1.513-.756c.549-.7.855-1.564.855-2.455v-1.83c0-2.224-1.663-4.053-3.786-4.164-1.118-.057-2.163.33-2.967 1.092-.793.752-1.247 1.81-1.247 2.902v2c0 .891.306 1.755.854 2.455l-1.513.756c-1.444.722-2.341 2.174-2.341 3.789v1zm-10.764-3 2.764-1.382v-1.842l-.331-.298c-.432-.389-.669-.914-.669-1.478v-2c0-.554.222-1.069.624-1.451.401-.381.946-.577 1.484-.546 1.043.055 1.892 1.027 1.892 2.167v1.83c0 .564-.237 1.089-.669 1.478l-.331.298v1.842l2.764 1.382c.444.222.791.575 1.003 1h-9.533c.211-.425.558-.778 1.002-1z"/><path d="m56.893 13.524-.548-.736-13.425 8.292 8.292-13.425-.736-.548c-5.375-3.995-11.764-6.107-18.476-6.107s-13.101 2.112-18.476 6.107l-.736.548 8.292 13.425-13.425-8.292-.548.736c-3.995 5.375-6.107 11.764-6.107 18.476s2.112 13.101 6.107 18.476l.548.736 13.425-8.292-8.292 13.425.736.548c5.375 3.995 11.764 6.107 18.476 6.107s13.101-2.112 18.476-6.107l.736-.548-8.292-13.425 13.425 8.292.548-.736c3.995-5.375 6.107-11.764 6.107-18.476s-2.112-13.101-6.107-18.476zm-41.431-5.347c4.868-3.39 10.566-5.177 16.538-5.177s11.67 1.787 16.538 5.177l-9.47 15.334-1.073-1.073-2.197.394-1.276-1.832h-5.045l-1.275 1.832-2.197-.394-1.073 1.073zm23.947 29.142-2.09 2.09-2.432-.437-1.409 2.028h-2.955l-1.41-2.027-2.432.437-2.09-2.09.437-2.432-2.028-1.41v-2.955l2.027-1.411-.437-2.431 2.09-2.089 2.432.436 1.41-2.028h2.955l1.41 2.027 2.432-.436 2.09 2.089-.437 2.431 2.028 1.411v2.955l-2.027 1.41zm-31.231 11.219c-3.391-4.868-5.178-10.566-5.178-16.538s1.787-11.67 5.178-16.539l15.334 9.471-1.073 1.074.394 2.197-1.833 1.275v5.045l1.832 1.275-.394 2.197 1.073 1.073zm20.822 12.291v-1.829h6v1.829c-.992.101-1.99.171-3 .171s-2.008-.07-3-.171zm10-7.829h-14v-5c0-.552.448-1 1-1h12c.552 0 1 .448 1 1zm-14 2h14v1c0 .552-.448 1-1 1h-12c-.552 0-1-.448-1-1zm23.538.822c-3.487 2.429-7.404 4.019-11.538 4.734v-1.556h1c1.654 0 3-1.346 3-3v-8c0-1.654-1.346-3-3-3h-12c-1.654 0-3 1.346-3 3v8c0 1.654 1.346 3 3 3h1v1.557c-4.134-.716-8.051-2.306-11.538-4.734l9.47-15.333 1.073 1.073 2.197-.394 1.276 1.831h5.045l1.275-1.832 2.197.394 1.073-1.073zm7.284-7.284-15.333-9.47 1.073-1.073-.394-2.197 1.832-1.276v-5.045l-1.832-1.275.394-2.197-1.073-1.074 15.334-9.471c3.39 4.87 5.177 10.568 5.177 16.54s-1.787 11.67-5.178 16.538z"/><path d="m32 27c-2.757 0-5 2.243-5 5s2.243 5 5 5 5-2.243 5-5-2.243-5-5-5zm0 8c-1.654 0-3-1.346-3-3s1.346-3 3-3 3 1.346 3 3-1.346 3-3 3z"/><path d="m52 22c-4.411 0-8 3.589-8 8 0 2.802 1.448 5.18 4 6.608v4.392h8v-4.392c2.552-1.429 4-3.806 4-6.608 0-4.411-3.589-8-8-8zm-2 17v-2h4v2zm1-9c0-.551.448-1 1-1s1 .449 1 1-.448 1-1 1-1-.449-1-1zm3.755 5h-1.755v-2.184c1.161-.414 2-1.514 2-2.816 0-1.654-1.346-3-3-3s-3 1.346-3 3c0 1.302.839 2.402 2 2.816v2.184h-1.755c-1.292-.657-3.245-2.12-3.245-5 0-3.309 2.691-6 6-6s6 2.691 6 6c0 2.88-1.953 4.343-3.245 5z"/><path d="m5 40h14v-14h-14zm8-2h-2v-2h2zm-2-10h2v2h-2zm-4 0h2v4h6v-4h2v10h-2v-4h-6v4h-2z"/></svg>