<svg id="Layer_1" enable-background="new 0 0 256 256" height="512" viewBox="0 0 256 256" width="512" xmlns="http://www.w3.org/2000/svg"><g><g><g><path d="m73.301 94.739-28.051-45.431-28.051 45.431 19.581-5.158v32.768h16.94v-32.768z" fill="#67beeb"/><g fill="#6377e7"><path d="m45.25 49.308-28.051 45.431 11.656-3.071 21.275-34.457z"/><path d="m36.78 89.581h9.76v32.769h-9.76z"/></g></g><g><path d="m182.699 94.739 28.051-45.431 28.051 45.431-19.581-5.158v32.768h-16.94v-32.768z" fill="#67beeb"/><g fill="#63e2e7"><path d="m210.75 49.308 28.051 45.431-11.656-3.071-21.275-34.457z"/><path d="m209.461 89.581h9.76v32.769h-9.76z"/></g></g></g><circle cx="161.736" cy="76.988" fill="#f8af23" r="9.781"/><circle cx="94.264" cy="76.988" fill="#f87023" r="9.781"/><path d="m186.798 153.697c-2.119-9.321-7.4-17.725-15.194-23.26-6.219-4.416-13.774-7.225-21.903-7.885l-14.892-1.209h-6.809-6.809l-14.892 1.209c-8.129.66-15.684 3.468-21.903 7.885-7.794 5.535-13.075 13.939-15.194 23.26l-17.116 75.304h75.914 75.914z" fill="#f46275"/><path d="m94.156 130.437c6.219-4.416 13.774-7.224 21.903-7.885l14.892-1.209h-2.951-6.809l-14.892 1.209c-8.129.66-15.684 3.468-21.903 7.885-7.794 5.535-13.075 13.939-15.194 23.26l-17.116 75.304h9.76l17.116-75.304c2.118-9.321 7.399-17.725 15.194-23.26z" fill="#f43075"/><path d="m128 138.803c-6.625 0-11.995-5.37-11.995-11.995v-19.521c0-6.625 5.37-11.995 11.995-11.995 6.625 0 11.995 5.37 11.995 11.995v19.521c0 6.625-5.37 11.995-11.995 11.995z" fill="#f8af23"/><path d="m116.005 107.287v19.521c0 5.408 3.581 9.978 8.5 11.474v-42.469c-4.919 1.497-8.5 6.066-8.5 11.474z" fill="#f87023"/><path d="m128 114.281c-18.555 0-33.736-15.181-33.736-33.736v-15.164c0-18.555 15.181-33.736 33.736-33.736 18.555 0 33.736 15.181 33.736 33.736v15.164c0 18.555-15.181 33.736-33.736 33.736z" fill="#f8af23"/><path d="m104.023 80.545v-15.164c0-16.898 12.593-30.993 28.856-33.376-1.595-.234-3.223-.36-4.88-.36-18.555 0-33.736 15.181-33.736 33.736v15.164c0 18.555 15.181 33.736 33.736 33.736 1.657 0 3.285-.126 4.88-.36-16.263-2.383-28.856-16.478-28.856-33.376z" fill="#f87023"/><g fill="#321f7a"><circle cx="114.31" cy="76.988" r="2.815"/><circle cx="141.69" cy="76.988" r="2.815"/></g><path d="m94.264 72.963h7.248l-.034-6.253c-.037-6.728 5.846-11.957 12.523-11.131l47.648 5.891s13.633 3.415 13.633-16.511c.048-.353.05-8.108.039-16.063-.013-9.612-7.809-17.397-17.421-17.397h-1.682c-3.975 0-7.197 3.222-7.197 7.197h-28.84c-17.046 0-30.864 13.818-30.864 30.864 0 3.446.55 7.52 2.277 10.502l2.67 5.031z" fill="#9e9e9e"/><g><path d="m99.076 49.56c0-17.046 13.818-30.864 30.864-30.864h-9.76c-17.046 0-30.864 13.818-30.864 30.864 0 3.446.55 7.52 2.277 10.502l2.67 5.031v7.869h7.248l-.034-6.253c-.009-1.645.34-3.198.964-4.597l-1.088-2.051c-1.727-2.981-2.277-7.055-2.277-10.501z" fill="#707070"/></g><g><path d="m148.132 196.141c.342.955.729 1.873 1.153 2.783l-8.555 8.555 16.822 16.822 8.555-8.555c.91.423 1.837.811 2.783 1.153v12.103h23.783v-12.103c.946-.342 1.873-.729 2.783-1.153l8.555 8.555 16.822-16.822-8.555-8.555c.423-.91.81-1.828 1.153-2.783h12.103v-23.783h-12.103c-.342-.946-.729-1.873-1.153-2.783l8.555-8.555-16.822-16.822-8.555 8.564c-.91-.423-1.837-.82-2.783-1.162v-12.094h-23.783v12.094c-.946.342-1.873.738-2.783 1.162l-8.555-8.564-16.822 16.822 8.555 8.555c-.423.91-.811 1.837-1.153 2.783h-12.094v23.783z" fill="#9e9e9e"/><g fill="#cecece"><path d="m202.517 169.576 8.555-8.555-11.94-11.94 4.877-4.882 16.822 16.822-8.555 8.555c.423.91.81 1.837 1.153 2.783h-9.76c-.341-.946-.728-1.874-1.152-2.783z"/><path d="m202.517 198.924c.423-.909.81-1.828 1.153-2.783h9.76c-.342.955-.729 1.873-1.153 2.783l8.555 8.555-16.822 16.822-4.88-4.88 11.942-11.942z"/><path d="m182.913 216.898h9.76v12.103h-9.76z"/><path d="m182.913 139.507h9.76v12.094h-9.76z"/><path d="m215.773 172.358h9.76v23.783h-9.76z"/></g><circle cx="180.781" cy="184.251" fill="#67beeb" r="15.145"/></g><g fill="#321f7a"><path d="m17.582 96.189 17.698-4.663v30.822c0 .829.671 1.5 1.5 1.5h16.94c.829 0 1.5-.671 1.5-1.5v-30.821l17.698 4.663c.594.154 1.223-.065 1.587-.558.365-.493.394-1.159.071-1.681l-28.05-45.431c-.273-.442-.756-.712-1.276-.712s-1.003.27-1.276.712l-28.05 45.431c-.322.522-.294 1.188.071 1.681.364.493.992.712 1.587.557zm27.668-44.026 24.801 40.168-15.948-4.201c-.451-.118-.929-.022-1.298.263-.369.284-.584.723-.584 1.188v31.269h-13.941v-31.269c0-.465-.216-.904-.584-1.188s-.846-.38-1.298-.263l-15.949 4.202z"/><path d="m183.082 96.189 17.698-4.663v30.822c0 .829.671 1.5 1.5 1.5h16.94c.829 0 1.5-.671 1.5-1.5v-30.821l17.698 4.663c.595.154 1.222-.065 1.587-.558s.394-1.159.071-1.681l-28.05-45.431c-.273-.442-.756-.712-1.276-.712s-1.003.27-1.276.712l-28.05 45.431c-.322.522-.294 1.188.071 1.681.364.493.991.712 1.587.557zm27.668-44.026 24.801 40.168-15.949-4.202c-.45-.118-.929-.022-1.298.263-.369.284-.584.723-.584 1.188v31.269h-13.94v-31.268c0-.465-.216-.904-.584-1.188s-.845-.38-1.298-.263l-15.949 4.202z"/><path d="m128 91.552c.829 0 1.5-.671 1.5-1.5v-8.446c0-.829-.671-1.5-1.5-1.5s-1.5.671-1.5 1.5v8.446c0 .828.671 1.5 1.5 1.5z"/><path d="m132.56 101.518c.818-.132 1.374-.901 1.243-1.719s-.897-1.377-1.719-1.243c-5.598.897-9.691-3.431-9.766-3.511-.559-.61-1.505-.653-2.117-.097-.613.558-.657 1.507-.099 2.119.188.208 4.279 4.616 10.405 4.616.66 0 1.347-.051 2.053-.165z"/><path d="m122.124 70.196c0-.829-.671-1.5-1.5-1.5h-12.628c-.829 0-1.5.671-1.5 1.5s.671 1.5 1.5 1.5h12.628c.829 0 1.5-.671 1.5-1.5z"/><path d="m135.376 71.696h12.628c.829 0 1.5-.671 1.5-1.5s-.671-1.5-1.5-1.5h-12.628c-.829 0-1.5.671-1.5 1.5s.671 1.5 1.5 1.5z"/><path d="m164.136 184.251c0 9.178 7.467 16.646 16.645 16.646s16.645-7.467 16.645-16.646-7.467-16.645-16.645-16.645-16.645 7.467-16.645 16.645zm30.29 0c0 7.524-6.121 13.646-13.645 13.646s-13.645-6.122-13.645-13.646 6.121-13.645 13.645-13.645 13.645 6.121 13.645 13.645z"/><path d="m128 213.501c.829 0 1.5-.671 1.5-1.5v-51.5c0-.829-.671-1.5-1.5-1.5s-1.5.671-1.5 1.5v51.5c0 .829.671 1.5 1.5 1.5z"/><path d="m27.323 243.001h-18.003c-.829 0-1.5.671-1.5 1.5s.671 1.5 1.5 1.5h18.003c.829 0 1.5-.671 1.5-1.5s-.671-1.5-1.5-1.5z"/><path d="m246.68 243.001h-18.003c-.829 0-1.5.671-1.5 1.5s.671 1.5 1.5 1.5h18.003c.829 0 1.5-.671 1.5-1.5s-.671-1.5-1.5-1.5z"/><path d="m218.479 243.001h-180.958c-.829 0-1.5.671-1.5 1.5s.671 1.5 1.5 1.5h180.959c.829 0 1.5-.671 1.5-1.5s-.672-1.5-1.501-1.5z"/><path d="m9.32 230.501h42.766 23.126.004.003 93.67 23.783 11.242 42.766c.829 0 1.5-.671 1.5-1.5s-.671-1.5-1.5-1.5h-42.766-9.742v-9.569c.316-.126.635-.258.953-.396l7.824 7.824c.281.281.663.439 1.061.439s.779-.158 1.061-.439l16.822-16.822c.281-.281.439-.663.439-1.061s-.158-.779-.439-1.061l-7.823-7.824c.14-.322.271-.64.396-.954h11.067c.829 0 1.5-.671 1.5-1.5v-23.783c0-.829-.671-1.5-1.5-1.5h-11.069c-.126-.316-.258-.634-.396-.953l7.824-7.824c.281-.281.439-.663.439-1.061s-.158-.779-.439-1.061l-16.822-16.822c-.562-.563-1.559-.563-2.122 0l-7.822 7.831c-.326-.142-.644-.275-.954-.4v-11.062c0-.829-.671-1.5-1.5-1.5h-11.346c-2.494-3.428-5.468-6.389-8.854-8.793-6.572-4.667-14.404-7.487-22.65-8.157l-8.327-.676v-7.292c10.452-4.35 18.367-13.593 20.885-24.853 5.919-.337 10.636-5.245 10.636-11.248 0-5.694-4.231-10.436-9.78-11.173v-.434c0-.734-.032-1.472-.078-2.208 1.957.104 5.124-.165 7.955-2.375 3.754-2.929 5.661-8.243 5.669-15.794.026-.507.057-2.777.039-16.111-.015-10.419-8.503-18.895-18.921-18.895h-1.683c-4.284 0-7.854 3.114-8.567 7.197h-27.469c-17.846 0-32.364 14.519-32.364 32.364 0 2.604.322 7.529 2.452 11.206l2.495 4.702v.345c-5.557.735-9.78 5.464-9.78 11.176 0 6.003 4.717 10.911 10.636 11.248 2.518 11.26 10.434 20.503 20.885 24.853v7.292l-8.327.676c-8.247.67-16.079 3.49-22.65 8.157-7.919 5.624-13.526 14.2-15.788 24.15l-16.851 74.137h-41.569c-.829 0-1.5.671-1.5 1.5s.671 1.504 1.5 1.504zm182.842-77.49c.822.298 1.693.662 2.661 1.112.572.265 1.248.146 1.693-.3l7.494-7.502 14.701 14.7-7.495 7.495c-.446.445-.565 1.122-.299 1.693.417.895.787 1.79 1.102 2.66.215.594.779.99 1.411.99h10.603v20.783h-10.603c-.633 0-1.198.397-1.412.994-.306.853-.666 1.721-1.101 2.656-.266.571-.146 1.248.299 1.693l7.495 7.495-14.701 14.7-7.494-7.495c-.445-.445-1.122-.565-1.693-.299-.894.416-1.789.787-2.661 1.103-.594.215-.989.779-.989 1.41v10.603h-20.783v-10.603c0-.631-.396-1.195-.989-1.41-.873-.316-1.768-.687-2.66-1.103-.571-.266-1.248-.146-1.694.299l-7.495 7.495-14.701-14.701 7.494-7.495c.446-.445.565-1.122.3-1.693-.436-.937-.796-1.806-1.101-2.657-.214-.596-.779-.994-1.412-.994h-10.594v-20.783h10.594c.632 0 1.195-.396 1.411-.99.314-.869.685-1.764 1.102-2.661.266-.571.146-1.248-.3-1.693l-7.494-7.495 14.7-14.7 7.495 7.502c.445.446 1.123.566 1.693.3.967-.45 1.837-.813 2.661-1.111.594-.215.989-.779.989-1.41v-10.594h20.783v10.594c0 .633.396 1.197.99 1.412zm-22.145-76.023c0 4.162-3.09 7.607-7.094 8.186.2-1.516.314-3.059.314-4.629v-11.694c3.875.708 6.78 4.095 6.78 8.137zm-79.201-27.428c0-16.191 13.173-29.364 29.364-29.364h28.84c.829 0 1.5-.671 1.5-1.5 0-3.142 2.556-5.697 5.697-5.697h1.683c8.767 0 15.909 7.132 15.921 15.899.018 13.139-.013 15.618-.025 15.86-.009.067-.014.134-.014.202 0 6.582-1.509 11.108-4.486 13.453-3.226 2.542-7.247 1.612-7.283 1.603-.059-.015-.12-.026-.18-.034l-47.648-5.891c-3.611-.444-7.241.683-9.96 3.101-2.719 2.417-4.268 5.89-4.248 9.528l.026 4.745h-4.24v-3.465-2.906c0-.245-.06-.487-.175-.703l-2.697-5.08c-1.805-3.119-2.075-7.448-2.075-9.751zm-4.833 27.428c0-4.055 2.901-7.431 6.78-8.136v4.111 7.582c0 1.57.114 3.113.314 4.629-4.004-.578-7.094-4.024-7.094-8.186zm9.781 3.557v-6.082h5.748c.399 0 .782-.159 1.063-.442.282-.283.438-.667.437-1.066l-.034-6.253c-.015-2.775 1.166-5.425 3.241-7.269 2.074-1.844 4.843-2.707 7.599-2.365l46.309 5.725c.069.861.111 1.728.111 2.589v15.164c0 17.775-14.461 32.236-32.236 32.236s-32.238-14.462-32.238-32.237zm32.236 35.236c3.654 0 7.179-.56 10.495-1.596v12.624c0 5.787-4.708 10.495-10.495 10.495s-10.495-4.708-10.495-10.495v-12.624c3.316 1.036 6.841 1.596 10.495 1.596zm-57.335 38.249c2.098-9.229 7.283-17.174 14.6-22.369 6.131-4.354 13.447-6.987 21.156-7.613l8.084-.656v3.417c0 7.441 6.054 13.495 13.495 13.495s13.495-6.054 13.495-13.495v-3.417l8.084.656c7.709.626 15.025 3.258 21.156 7.613 2.522 1.79 4.788 3.927 6.785 6.347h-8.631c-.829 0-1.5.671-1.5 1.5v11.062c-.311.125-.628.258-.954.4l-7.823-7.831c-.281-.282-.663-.44-1.061-.44-.398 0-.779.158-1.061.439l-16.822 16.822c-.586.585-.586 1.535 0 2.121l7.824 7.825c-.138.318-.27.636-.395.953h-11.06c-.829 0-1.5.671-1.5 1.5v23.783c0 .829.671 1.5 1.5 1.5h11.058c.125.313.257.631.396.954l-7.823 7.824c-.586.586-.586 1.536 0 2.121l16.822 16.822c.586.586 1.535.586 2.121 0l7.824-7.824c.318.137.636.269.953.395v9.569h-90.294l13.894-61.127c.184-.808-.323-1.612-1.13-1.795-.805-.181-1.611.322-1.795 1.13l-14.045 61.792h-20.053z"/></g></g></svg>