<svg id="Layer_35" enable-background="new 0 0 64 64" height="512" viewBox="0 0 64 64" width="512" xmlns="http://www.w3.org/2000/svg"><path d="m62 16h-6c0-4.42-3.58-8-8-8h-27c-4.42 0-8 3.58-8 8v4h4l-7 10-7-10h4v-4c0-7.73 6.27-14 14-14h27c3.86 0 7.36 1.57 9.9 4.1 2.53 2.54 4.1 6.04 4.1 9.9z" fill="#fcd770"/><path d="m54 34 7 10h-4v4c0 7.73-6.27 14-14 14h-27c-3.86 0-7.36-1.57-9.9-4.1-2.53-2.54-4.1-6.04-4.1-9.9h6c0 4.42 3.58 8 8 8h27c4.42 0 8-3.58 8-8v-4h-4z" fill="#fcd770"/><path d="m25 47 4 5h-9v-8c0-3.55 1.54-6.74 3.99-8.94l-.99 8.94 3 1z" fill="#e6e9ed"/><path d="m44 44v8h-9l4-5-1-2 3-1-.99-8.94c2.45 2.2 3.99 5.39 3.99 8.94z" fill="#e6e9ed"/><path d="m27.02 33.08 4.98 18.92h-3l-4-5 1-2-3-1 .99-8.94c.9-.81 1.92-1.48 3.03-1.98z" fill="#ccd1d9"/><path d="m32 52 4.98-18.92c1.11.5 2.13 1.17 3.03 1.98l.99 8.94-3 1 1 2-4 5z" fill="#ccd1d9"/><path d="m32 32c1.77 0 3.46.38 4.98 1.08l-4.98 18.92-4.98-18.92c1.52-.7 3.21-1.08 4.98-1.08z" fill="#ff826e"/><circle cx="32" cy="23" fill="#f0d0b4" r="9"/><path d="m45.079 45h4.921v3c0 3.86-3.141 7-7 7h-27c-3.859 0-7-3.14-7-7v-1h-8v1c0 8.271 6.729 15 15 15h27c8.271 0 15-6.729 15-15v-3h4.921l-8.921-12.744zm10.921-2v5c0 7.168-5.832 13-13 13h-27c-6.832 0-12.449-5.297-12.962-12h4.018c.499 4.494 4.319 8 8.944 8h27c4.963 0 9-4.038 9-9v-5h-3.079l5.079-7.256 5.079 7.256z"/><path d="m48 1h-27c-8.271 0-15 6.729-15 15v3h-4.921l8.921 12.744 8.921-12.744h-4.921v-3c0-3.86 3.141-7 7-7h27c3.859 0 7 3.14 7 7v1h8v-1c0-8.271-6.729-15-15-15zm8.944 14c-.499-4.494-4.319-8-8.944-8h-27c-4.963 0-9 4.038-9 9v5h3.079l-5.079 7.256-5.079-7.256h3.079v-5c0-7.168 5.832-13 13-13h27c6.832 0 12.449 5.297 12.962 12z"/><path d="m41 11h2v2h-2z"/><path d="m53 17v-1c0-2.757-2.243-5-5-5h-3v2h3c1.654 0 3 1.346 3 3v1z"/><path d="m19 44v9h26v-9c0-5.541-3.491-10.27-8.384-12.138 3.195-1.671 5.384-5.013 5.384-8.862 0-5.514-4.486-10-10-10s-10 4.486-10 10c0 3.849 2.189 7.191 5.384 8.862-4.893 1.868-8.384 6.597-8.384 12.138zm2 0c0-2.103.603-4.062 1.631-5.734l-.714 6.427 2.673.891-.771 1.541 3.1 3.875h-5.919zm18.917-.693-3.327 1.109 1.229 2.459-3.3 4.125h-1.222l4.326-16.437c.504.302.987.635 1.435 1.011zm-15.834 0 .86-7.734c.448-.376.931-.709 1.435-1.011l4.325 16.438h-1.222l-3.3-4.125 1.229-2.459zm18.917 7.693h-5.919l3.1-3.875-.771-1.541 2.673-.891-.714-6.427c1.028 1.672 1.631 3.631 1.631 5.734zm-19-28c0-4.411 3.589-8 8-8s8 3.589 8 8-3.589 8-8 8-8-3.589-8-8zm11.786 10.685-3.786 14.387-3.786-14.386c1.183-.436 2.454-.686 3.786-.686s2.603.25 3.786.685z"/></svg>