<svg id="Capa_1" enable-background="new 0 0 512 512" height="512" viewBox="0 0 512 512" width="512" xmlns="http://www.w3.org/2000/svg"><g><path d="m380.25 256c0 35.51-14.9 67.54-38.78 90.18-22.28 21.12-52.36 34.07-85.47 34.07s-63.19-12.95-85.47-34.07c-23.88-22.64-38.78-54.67-38.78-90.18 0-68.62 55.63-124.25 124.25-124.25s124.25 55.63 124.25 124.25z" fill="#eaf6ff"/><path d="m341.47 327.27v18.91c-22.28 21.12-52.36 34.07-85.47 34.07s-63.19-12.95-85.47-34.07v-18.91c0-9.38 5.96-17.72 14.83-20.75l47.33-16.19h46.62l47.33 16.19c8.87 3.03 14.83 11.37 14.83 20.75z" fill="#8ac9fe"/><path d="m271 379.35c-4.91.6-9.92.9-15 .9-33.11 0-63.19-12.95-85.47-34.07v-18.91c0-9.38 5.96-17.72 14.83-20.75l47.33-16.19h30l-47.33 16.19c-8.87 3.03-14.83 11.37-14.83 20.75v18.91c18.86 17.88 43.32 29.91 70.47 33.17z" fill="#60b7ff"/><path d="m504.498 289.36v-66.72l-56.216-14.508c-4.805-19.364-12.439-37.607-22.469-54.251l29.491-50.008-47.177-47.178-50.008 29.491c-16.645-10.031-34.888-17.664-54.251-22.47l-14.508-56.214h-66.72l-14.507 56.216c-19.364 4.805-37.607 12.439-54.251 22.47l-50.008-29.491-47.177 47.178 29.491 50.008c-10.031 16.644-17.665 34.887-22.469 54.251l-56.217 14.506v66.719l56.216 14.508c4.805 19.364 12.439 37.607 22.469 54.251l-29.491 50.008 47.177 47.178 50.008-29.491c16.645 10.031 34.888 17.664 54.251 22.47l14.507 56.216h66.719l14.507-56.216c19.364-4.805 37.607-12.439 54.251-22.47l50.008 29.491 47.177-47.178-29.491-50.008c10.031-16.644 17.665-34.887 22.469-54.251zm-248.498 122.304c-85.834 0-155.664-69.83-155.664-155.664s69.83-155.664 155.664-155.664 155.664 69.831 155.664 155.664-69.83 155.664-155.664 155.664z" fill="#68748f"/><g fill="#5d6980"><path d="m222.64 7.5-14.51 56.22c-13.47 3.34-26.4 8.05-38.62 13.99l14.37 8.48c16.65-10.03 34.89-17.67 54.25-22.47l14.51-56.22z"/><path d="m238.13 448.28c-19.36-4.8-37.6-12.44-54.25-22.47l-14.37 8.48c12.22 5.94 25.15 10.65 38.62 13.99l14.51 56.22h30z"/><path d="m116.19 358.12c-10.03-16.65-17.67-34.89-22.47-54.25l-56.22-14.51v-66.72l56.22-14.51c4.8-19.36 12.44-37.6 22.47-54.25l-29.49-50.01 36.04-36.04-18.87-11.13-47.17 47.17 29.49 50.01c-10.03 16.65-17.67 34.89-22.47 54.25l-56.22 14.51v66.72l56.22 14.51c4.8 19.36 12.44 37.6 22.47 54.25l-29.49 50.01 47.17 47.17 18.87-11.13-36.04-36.04z"/></g><path d="m216.001 217.767v48.538c0 20.405 16.541 36.946 36.946 36.946h6.107c20.405 0 36.946-16.541 36.946-36.946v-48.538c0-6.249-5.066-11.314-11.314-11.314h-57.37c-6.25 0-11.315 5.065-11.315 11.314z" fill="#ffcebf"/><path d="m266 302.59c-2.25.44-4.57.66-6.95.66h-6.1c-20.41 0-36.95-16.54-36.95-36.95v-48.53c0-6.25 5.07-11.32 11.32-11.32h20c-6.25 0-11.32 5.07-11.32 11.32v48.53c0 18.03 12.91 33.05 30 36.29z" fill="#ffb09e"/><path d="m216.001 230.411h16.037c6.113 0 11.955-2.517 16.154-6.96l10.973-11.612 7.127 12.43c2.178 3.799 6.223 6.142 10.602 6.142h19.106v-24.963c0-15.148-12.28-27.428-27.428-27.428h-25.143c-15.148 0-27.428 12.28-27.428 27.428z" fill="#68748f"/><path d="m243.43 178.02h20c-15.15 0-27.43 12.28-27.43 27.43v24.6c-1.29.24-2.62.36-3.96.36h-16.04v-24.96c0-15.15 12.28-27.43 27.43-27.43z" fill="#5d6980"/><g><path d="m256 139.25c57.854 0 107.548 43.122 115.593 100.305.577 4.102 4.367 6.96 8.472 6.382 4.102-.577 6.959-4.37 6.382-8.472-8.994-63.927-65.931-113.215-130.447-113.215-72.647 0-131.75 59.103-131.75 131.75 0 71.604 60.169 131.75 131.75 131.75 65.438 0 122.831-50.427 130.775-115.653.5-4.112-2.427-7.851-6.539-8.352-4.107-.502-7.851 2.426-8.352 6.538-2.495 20.496-10.502 39.954-22.941 56.328-.275-12.318-8.183-23.194-19.876-27.188l-31.599-10.81c3.827-6.563 6.031-14.184 6.031-22.314l-.001-60.852c0-19.259-15.669-34.928-34.928-34.928h-25.143c-19.259 0-34.928 15.668-34.928 34.928l.001 60.853c0 8.13 2.204 15.75 6.031 22.314l-31.595 10.809c-11.723 4.004-19.642 14.919-19.883 27.271-15.453-20.189-23.803-44.707-23.803-70.694 0-64.376 52.374-116.75 116.75-116.75zm-32.5 127.05v-28.389h8.538c10.242 0 19.523-5.694 25.643-13.582 3.54 7.257 10.707 13.582 19.213 13.582h11.606v28.389c0 39.185-65 39.185-65 0zm.001-60.852c0-10.988 8.939-19.928 19.928-19.928h25.143c10.988 0 19.928 8.939 19.928 19.928v17.463h-11.605c-1.688 0-3.256-.909-4.095-2.372l-7.127-12.43c-2.545-4.437-8.57-5.004-11.958-1.421l-10.975 11.612c-2.77 2.93-6.67 4.611-10.702 4.611h-8.537zm-35.713 108.168 37.262-12.748c16.566 13.397 45.4 13.344 61.9 0l37.266 12.749c5.834 1.993 9.754 7.479 9.754 13.653v15.621c-43.556 39.132-112.426 39.094-155.939 0v-15.621c-.001-6.173 3.919-11.66 9.757-13.654z"/><path d="m506.374 215.378-51.944-13.407c-4.563-16.816-11.247-32.952-19.917-48.084l27.247-46.208c1.737-2.946 1.262-6.694-1.156-9.113l-47.17-47.17c-2.42-2.418-6.167-2.896-9.113-1.157l-46.207 27.248c-15.132-8.669-31.271-15.354-48.084-19.917l-13.408-51.944c-.854-3.312-3.842-5.626-7.262-5.626h-66.72c-3.42 0-6.407 2.314-7.262 5.626l-13.407 51.945c-16.813 4.563-32.952 11.247-48.084 19.917l-46.207-27.248c-2.948-1.739-6.696-1.261-9.113 1.157l-47.17 47.17c-2.418 2.418-2.894 6.167-1.156 9.113l27.247 46.208c-8.67 15.132-15.354 31.268-19.917 48.084l-51.945 13.406c-3.312.855-5.626 3.842-5.626 7.262v66.72c0 3.42 2.314 6.407 5.626 7.262l51.944 13.407c4.563 16.816 11.247 32.952 19.917 48.084l-27.247 46.207c-1.737 2.946-1.262 6.694 1.156 9.113l12.729 12.73c2.929 2.929 7.677 2.929 10.607 0 2.929-2.929 2.929-7.677 0-10.606l-8.622-8.622 26.54-45.005c1.399-2.373 1.386-5.321-.035-7.68-9.785-16.243-17.058-33.8-21.616-52.185-.662-2.674-2.737-4.769-5.405-5.458l-50.594-13.057v-55.1l50.594-13.058c2.668-.688 4.743-2.784 5.405-5.458 4.559-18.384 11.831-35.942 21.616-52.185 1.421-2.359 1.435-5.307.035-7.68l-26.539-45.005 38.954-38.953 45.005 26.539c2.372 1.399 5.319 1.385 7.68-.036 16.243-9.784 33.801-17.056 52.185-21.614 2.674-.663 4.769-2.738 5.457-5.405l13.058-50.595h55.1l13.059 50.595c.688 2.667 2.783 4.742 5.457 5.405 18.384 4.558 35.941 11.83 52.185 21.614 2.359 1.421 5.307 1.436 7.68.036l45.005-26.539 38.954 38.953-26.54 45.006c-1.399 2.373-1.386 5.321.035 7.68 9.785 16.243 17.058 33.8 21.616 52.185.662 2.674 2.737 4.769 5.405 5.458l50.594 13.057v55.1l-50.594 13.058c-2.668.688-4.743 2.784-5.405 5.458-4.559 18.384-11.831 35.942-21.616 52.185-1.421 2.359-1.435 5.307-.035 7.68l26.539 45.005-38.954 38.953-45.005-26.539c-2.373-1.399-5.32-1.385-7.68.036-16.243 9.785-33.801 17.057-52.185 21.614-2.674.663-4.769 2.738-5.457 5.405l-13.058 50.595h-55.1l-13.059-50.595c-.688-2.667-2.783-4.742-5.457-5.405-18.384-4.558-35.941-11.83-52.185-21.614-2.36-1.421-5.308-1.435-7.68-.036l-45.005 26.539-7.223-7.221c-2.929-2.931-7.678-2.929-10.606 0-2.929 2.929-2.929 7.678.001 10.606l11.33 11.33c2.418 2.417 6.164 2.894 9.112 1.157l46.207-27.248c15.132 8.669 31.271 15.354 48.084 19.917l13.407 51.945c.854 3.312 3.842 5.626 7.262 5.626h66.721c3.42 0 6.407-2.314 7.262-5.626l13.407-51.945c16.813-4.563 32.952-11.247 48.084-19.917l46.207 27.248c2.946 1.737 6.695 1.26 9.113-1.157l47.17-47.17c2.418-2.418 2.894-6.167 1.156-9.113l-27.247-46.208c8.67-15.132 15.354-31.268 19.917-48.084l51.944-13.407c3.312-.855 5.626-3.842 5.626-7.262v-66.72c.002-3.42-2.312-6.407-5.624-7.262z"/><path d="m238.879 93.741c-39.833 4.172-76.68 22.916-103.753 52.776-27.269 30.077-42.286 68.959-42.286 109.483 0 89.967 73.193 163.16 163.16 163.16s163.16-73.193 163.16-163.16c0-82.153-64.278-153.695-146.039-162.259-4.132-.434-7.809 2.559-8.24 6.678-.432 4.12 2.558 7.809 6.678 8.24 75.595 7.92 132.601 71.262 132.601 147.341 0 81.696-66.465 148.16-148.16 148.16s-148.16-66.464-148.16-148.16c0-76.079 57.006-139.421 132.602-147.341 4.12-.431 7.109-4.121 6.678-8.24-.432-4.119-4.111-7.105-8.241-6.678z"/></g></g></svg>